<?xml version="1.0" standalone="no"?>
<!DOCTYPE svg PUBLIC "-//W3C//DTD SVG 20010904//EN"
 "http://www.w3.org/TR/2001/REC-SVG-20010904/DTD/svg10.dtd">
<svg version="1.0" xmlns="http://www.w3.org/2000/svg"
 width="256.000000pt" height="256.000000pt" viewBox="0 0 256.000000 256.000000"
 preserveAspectRatio="xMidYMid meet">
<metadata>
Created by potrace 1.11, written by Peter Selinger 2001-2013
</metadata>
<g transform="translate(0.000000,256.000000) scale(0.100000,-0.100000)"
fill="#000000" stroke="none">
<path d="M2100 2543 c-83 -16 -146 -16 -286 -1 -95 10 -169 9 -447 -7 -284
-16 -353 -17 -460 -6 -92 9 -235 10 -513 5 l-386 -7 7 -217 c5 -124 4 -220 -1
-223 -5 -3 -8 -117 -7 -254 2 -136 3 -304 3 -373 0 -122 0 -124 17 -101 23 31
91 98 137 134 20 16 36 36 36 45 0 10 28 40 63 67 34 28 83 71 109 97 26 26
56 49 66 52 9 3 26 22 37 42 10 19 33 42 49 51 17 8 41 24 53 35 19 18 26 19
54 9 18 -6 43 -21 55 -32 l21 -20 5 103 c4 79 12 119 32 172 148 386 635 489
927 195 109 -109 159 -233 159 -396 l0 -92 44 29 c24 17 49 30 55 30 6 0 48
-35 94 -78 45 -43 109 -98 142 -122 33 -25 119 -101 190 -170 72 -69 146 -133
164 -144 l33 -18 -8 83 c-4 46 -6 181 -4 299 2 118 3 256 3 305 -1 50 -2 181
-4 293 l-2 202 -116 1 c-64 0 -147 6 -186 12 -55 10 -83 10 -135 0z"/>
<path d="M1326 1548 c-31 -16 -52 -19 -100 -15 -51 3 -74 -1 -136 -25 -79 -31
-230 -110 -317 -165 -29 -18 -56 -33 -62 -33 -12 0 -161 -146 -161 -159 0 -8
-68 -26 -75 -19 -2 2 9 23 25 46 33 49 63 82 201 217 68 67 106 113 98 118
-11 7 -78 30 -108 37 -36 9 -169 -18 -222 -46 -16 -8 -50 -14 -77 -14 -36 0
-54 -5 -67 -20 -10 -11 -57 -47 -105 -79 -47 -33 -92 -66 -98 -73 -6 -8 -34
-25 -62 -38 l-51 -24 1 -276 c0 -151 1 -293 1 -315 0 -128 6 -595 7 -622 l2
-32 1127 1 c621 1 1148 -2 1172 -7 24 -4 81 -4 126 0 79 6 84 8 90 33 5 21 11
304 19 862 0 41 0 147 -2 234 -2 131 -4 157 -14 143 -12 -16 -17 -15 -63 7
-27 12 -77 40 -109 61 -50 32 -67 37 -111 36 -32 0 -75 8 -111 21 -70 26 -150
28 -333 10 -114 -11 -126 -15 -157 -42 -34 -29 -72 -43 -153 -56 -27 -4 -57
-18 -78 -37 -25 -22 -40 -28 -61 -24 -23 5 -46 -9 -146 -87 -91 -72 -124 -92
-142 -88 -13 2 -24 8 -24 13 0 4 31 33 69 63 38 31 72 65 76 76 3 11 25 28 48
38 23 10 48 26 56 36 8 9 29 23 48 31 18 8 33 20 33 28 0 8 11 19 24 25 31 14
106 108 106 133 0 19 -10 23 -80 33 -19 2 -42 7 -50 10 -8 3 -33 -4 -54 -16z"/>
</g>
</svg>
