<?xml version="1.0" encoding="UTF-8" standalone="no"?>
<svg width="33px" height="41px" viewBox="0 0 33 41" version="1.1" xmlns="http://www.w3.org/2000/svg" xmlns:xlink="http://www.w3.org/1999/xlink">
    <!-- Generator: sketchtool 40.3 (33839) - http://www.bohemiancoding.com/sketch -->
    <title>blue pin</title>
    <desc>Created with sketchtool.</desc>
    <defs></defs>
    <g id="Page-1" stroke="none" stroke-width="1" fill="none" fill-rule="evenodd">
        <g id="map" transform="translate(-1164.000000, -527.000000)">
            <g id="blue-pin" transform="translate(1164.000000, 527.000000)">
                <path d="M16.4913748,0.287104427 C7.40041819,0.287104427 0,7.60040271 0,16.5843379 C0,17.6071768 0.0948771563,18.6385394 0.293256665,19.644331 C0.301881861,19.7039966 0.336382645,19.8829934 0.405384213,20.1898451 C0.655514898,21.2893969 1.02639833,22.3719015 1.5094093,23.403264 C3.28619969,27.537238 7.19341349,33.887363 15.7668583,40.6892418 C15.9824882,40.859715 16.2412441,40.9449515 16.5,40.9449515 C16.7587559,40.9449515 17.0175118,40.859715 17.2331417,40.6892418 C25.7979613,33.887363 29.7138003,27.537238 31.4905907,23.403264 C31.9736017,22.3719015 32.3444851,21.2979206 32.5946158,20.1898451 C32.6636174,19.8829934 32.6981181,19.7039966 32.7067433,19.644331 C32.8964976,18.6385394 33,17.6071768 33,16.5843379 C32.9827496,7.60040271 25.5823314,0.287104427 16.4913748,0.287104427 L16.4913748,0.287104427 Z" id="pin" fill="#1A366C"></path>
                <path d="M16.4913748,6.4156143 C10.7211187,6.4156143 6.02038683,11.0610077 6.02038683,16.7633347 C6.02038683,22.4656617 10.7211187,27.1110551 16.4913748,27.1110551 C22.2616309,27.1110551 26.9623628,22.4656617 26.9623628,16.7633347 C26.9623628,11.0610077 22.2616309,6.4156143 16.4913748,6.4156143 L16.4913748,6.4156143 Z" id="Shape" fill="#C3F6F9"></path>
            </g>
        </g>
    </g>
</svg>