<?xml version="1.0" encoding="UTF-8" standalone="no"?>
<svg width="33px" height="41px" viewBox="0 0 33 41" version="1.1" xmlns="http://www.w3.org/2000/svg" xmlns:xlink="http://www.w3.org/1999/xlink">
    <!-- Generator: sketchtool 40.3 (33839) - http://www.bohemiancoding.com/sketch -->
    <title>green pin</title>
    <desc>Created with sketchtool.</desc>
    <defs></defs>
    <g id="Page-1" stroke="none" stroke-width="1" fill="none" fill-rule="evenodd">
        <g id="map" transform="translate(-1217.000000, -527.000000)">
            <g id="green-pin" transform="translate(1217.000000, 527.000000)">
                <path d="M16.4913748,0 C7.40041819,0 0,7.31329829 0,16.2972335 C0,17.3200724 0.0948771563,18.351435 0.293256665,19.3572266 C0.301881861,19.4168922 0.336382645,19.595889 0.405384213,19.9027407 C0.655514898,21.0022925 1.02639833,22.084797 1.5094093,23.1161596 C3.28619969,27.2501336 7.19341349,33.6002586 15.7668583,40.4021374 C15.9824882,40.5726105 16.2412441,40.6578471 16.5,40.6578471 C16.7587559,40.6578471 17.0175118,40.5726105 17.2331417,40.4021374 C25.7979613,33.6002586 29.7138003,27.2501336 31.4905907,23.1161596 C31.9736017,22.084797 32.3444851,21.0108162 32.5946158,19.9027407 C32.6636174,19.595889 32.6981181,19.4168922 32.7067433,19.3572266 C32.8964976,18.351435 33,17.3200724 33,16.2972335 C32.9827496,7.31329829 25.5823314,0 16.4913748,0 L16.4913748,0 Z" id="pin" fill="#1A366C"></path>
                <path d="M16.470988,6 C10.7007318,6 6,10.6453934 6,16.3477204 C6,22.0500474 10.7007318,26.6954408 16.470988,26.6954408 C22.2412441,26.6954408 26.941976,22.0500474 26.941976,16.3477204 C26.941976,10.6453934 22.2412441,6 16.470988,6 L16.470988,6 Z" id="Shape" fill="#63B99E"></path>
            </g>
        </g>
    </g>
</svg>