<?xml version="1.0" encoding="UTF-8" standalone="no"?>
<svg width="147px" height="43px" viewBox="0 0 147 43" version="1.1" xmlns="http://www.w3.org/2000/svg" xmlns:xlink="http://www.w3.org/1999/xlink">
    <!-- Generator: sketchtool 40.1 (33804) - http://www.bohemiancoding.com/sketch -->
    <title>7E8A4F37-CE98-4663-9B1C-394371F98F9B</title>
    <desc>Created with sketchtool.</desc>
    <defs></defs>
    <g id="Symbols" stroke="none" stroke-width="1" fill="none" fill-rule="evenodd">
        <g id="1400px-navigation-winter" transform="translate(-75.000000, -30.000000)">
            <g id="sp-logo" transform="translate(75.000000, 30.000000)">
                <g>
                    <path d="M0.353289234,21.8696346 L0.357025547,21.8944423 C0.569995438,21.7894231 1.29110401,21.4280577 1.73863139,21.1684038 C2.26586679,20.8636827 2.42237682,20.5763269 2.42237682,20.5763269 C2.42237682,20.5763269 3.55946168,19.8242404 3.86459398,19.6232981 C4.17055657,19.4227692 4.84350821,18.9278558 5.05855383,18.7781827 C5.27775091,18.6285096 5.94239964,17.8710481 5.8635219,17.9913654 C5.7543385,18.1505481 6.79635493,17.9508462 6.79635493,17.9508462 L7.59343522,17.9165288 L9.02112226,17.2917885 C9.02112226,17.2917885 10.5455383,17.0834038 10.7178239,16.9374519 C10.8880338,16.7890192 12.2231432,16.9659808 12.2364279,17.1053173 C12.2538641,17.2438269 12.7956296,17.4559327 13.2145119,17.4360865 C13.635885,17.4187212 13.3834763,17.6672115 13.2680657,17.9020577 C13.1534854,18.1431058 12.8745073,18.5764135 12.8745073,18.5764135 L12.4813641,18.8282115 C12.4813641,18.8282115 11.4405931,20.0016154 11.428969,19.8602115 C11.4098723,19.7175673 11.3226916,20.6156058 10.447979,20.7446058 C10.2582573,20.7739615 9.74389142,21.6509135 9.57617245,21.9519135 C9.36569343,22.0035962 8.99496807,22.1243269 8.92356296,22.3963846 C8.82724909,22.7742885 8.75293796,22.7742885 8.75293796,22.7742885 C8.75293796,22.7742885 8.2676323,23.3932404 7.90770073,23.9121346 C7.85248631,23.9357019 7.85912865,23.9861442 7.85912865,23.9861442 L7.93510036,23.9592692 C7.93510036,23.9592692 8.87083942,23.8005 9.05765511,23.7942981 C9.2913823,23.7810673 9.74181569,22.9665481 9.74181569,22.9665481 L10.0382299,22.6117981 L11.144594,21.7513846 C11.2284535,21.7497308 11.2479653,21.6604231 11.2878193,21.5396923 C11.30401,21.4904904 11.3247673,21.4350865 11.3546578,21.376375 C11.3583942,21.3676923 11.3642062,21.3573558 11.3696031,21.3503269 C11.3828878,21.3317212 11.3916058,21.3122885 11.4044754,21.2932692 C11.4115328,21.2792115 11.4202509,21.2717692 11.428969,21.2626731 C11.4447445,21.2424135 11.4621807,21.2229808 11.4800319,21.2035481 C11.4883349,21.1944519 11.4949772,21.18825 11.5036953,21.1812212 C11.5310949,21.1535192 11.5643066,21.129125 11.599594,21.1034904 C11.6066515,21.0993558 11.6203513,21.0915 11.6274088,21.0873654 C11.6597901,21.0691731 11.6913412,21.0526346 11.7270438,21.0356827 C11.7440648,21.0274135 11.7573495,21.0199712 11.776031,21.0117019 C11.812979,21.0005385 11.8532482,20.9856538 11.8931022,20.9740769 C11.9126141,20.9682885 11.9288047,20.9637404 11.9483166,20.9567115 C12.0101734,20.9422404 12.0786724,20.9273558 12.1533987,20.9161923 C12.2949635,20.8963462 13.03849,20.3968846 13.03849,20.3968846 L13.7363504,19.9474519 L14.7571943,19.4339327 L16.4298175,18.4689135 C16.4298175,18.4689135 17.4552281,18.0004615 17.9459307,17.7933173 C18.4420301,17.5845192 18.7156113,17.5245673 19.0738823,17.3699327 C19.4317381,17.2136442 19.9245164,17.0065 19.8037089,17.1954519 C19.6862226,17.3893654 21.5547947,17.3533942 21.5547947,17.3533942 L22.8840922,16.6422404 C22.8840922,16.6422404 23.4437089,16.9895481 24.0045712,16.9659808 C24.564188,16.9395192 25.0914234,17.0610769 25.2707664,17.3810962 C25.3239051,17.8470673 24.0635219,19.16725 24.0635219,19.16725 C24.0635219,19.16725 23.6558485,19.7030962 23.3307892,19.7163269 C23.2797263,19.7167404 23.2427783,19.7250096 23.210812,19.7353462 C23.2033394,19.7403077 23.1929608,19.7436154 23.1867336,19.7494038 C23.1609945,19.7597404 23.1448038,19.7713173 23.1302737,19.7870288 C23.1232162,19.7924038 23.1198951,19.7965385 23.1169891,19.8023269 C23.0787956,19.8478077 23.0659261,19.9069327 23.0526414,19.9801154 C23.0430931,20.0595 23.0368659,20.1475673 23.014448,20.2451442 C22.9542518,20.5300192 21.9454471,20.71525 21.9454471,20.71525 L21.4157208,21.4379808 L21.1413093,21.5169519 L20.2358759,21.8390385 L19.7908394,22.5965 L18.5474772,23.7393077 L18.3286953,23.7963654 C18.3286953,23.7963654 17.8280292,24.3317981 17.4477555,24.7254135 C17.4477555,24.7254135 17.6009443,24.8114135 17.9596305,24.7014327 C18.3249589,24.5922788 18.2647628,24.9697692 18.2647628,24.9697692 L19.3030429,24.1771635 L20.5588595,23.1703846 L21.6170666,22.3864615 L22.2991515,21.7943846 C22.2991515,21.7943846 23.2797263,22.1561635 23.3959672,21.9159423 C23.4362363,21.8291154 23.5645164,21.6959808 23.711063,21.5566442 C23.7442746,21.5289423 23.77375,21.4995865 23.8044708,21.473125 C23.8140192,21.4627885 23.8231524,21.4520385 23.8322856,21.4441827 C23.9356569,21.354875 24.0340465,21.2697019 24.1199818,21.1985865 C24.1199818,21.1985865 24.1220575,21.1977596 24.1220575,21.1944519 C24.1756113,21.1510385 24.2221077,21.1138269 24.2561496,21.0873654 C24.2652828,21.0828173 24.268604,21.0770288 24.2731706,21.0733077 C24.2922673,21.05925 24.2976642,21.0526346 24.308458,21.0460192 C24.3221578,21.03775 24.3246487,21.0319615 24.3246487,21.0319615 C24.3246487,21.0319615 26.5884398,20.6982981 27.0700091,20.3952308 C27.550333,20.0954712 28.0069936,19.5575577 28.0069936,19.5575577 C28.0069936,19.5575577 28.9236359,19.3772885 29.3429334,19.3619904 C29.7647217,19.3400769 30.5576505,19.3078269 30.5576505,19.3078269 L31.6187637,19.1151538 C31.6187637,19.1151538 32.8808075,19.065125 33.4288002,18.9460481 C33.9780383,18.8282115 34.6518203,18.9882212 34.810406,19.1213558 C34.9660858,19.2536635 36.6868659,19.9284327 37.5080246,19.7539519 C38.3325046,19.5765769 38.908312,20.0698365 38.908312,20.0698365 L40.3725319,20.9889615 L41.6457847,21.5789712 L42.1489416,21.8105096 L42.2655976,21.4937981 L42.3440602,21.2866538 L42.4636223,21.0733077 L42.4636223,20.3828269 L41.046729,19.4587404 L39.684635,18.2501923 L38.6679425,17.173125 L37.6649498,16.1853654 L36.266323,15.0251923 L34.7850821,13.9638365 L32.8201962,11.98625 L32.0642153,11.5049808 C32.0642153,11.5049808 31.6548814,12.0358654 31.639521,11.8965288 C31.6266515,11.7935769 30.8964097,12.2694712 30.3886861,12.6804519 C30.21474,12.8185481 30.0702692,12.9487885 29.9855794,13.0500865 C29.654708,13.4379135 29.8265785,13.7128654 29.8265785,13.7128654 L27.8380292,15.2050481 L27.263052,15.0892788 L26.4348358,14.4219519 C26.4348358,14.4219519 25.7531661,13.7967981 25.7378057,13.6549808 C25.7220301,13.5139904 24.2943431,12.5460769 24.2943431,12.5460769 L23.8472308,11.862625 C23.8472308,11.862625 22.6225502,11.4475096 22.2235949,11.2292019 C21.8217336,11.0117212 21.4626323,11.1684231 21.2301505,11.1771058 C20.9984991,11.1903365 21.1707847,11.4636346 21.1707847,11.4636346 C21.1707847,11.4636346 19.9407071,12.2215096 19.8261268,12.4600769 C19.7144526,12.6998846 18.5188321,13.7368462 18.5188321,13.7368462 L17.767833,14.1424519 L17.5083668,14.3405 L15.5472172,16.0691827 L15.4936633,15.6007308 C15.4936633,15.6007308 14.8078422,15.3497596 14.5479608,15.1281442 C14.2868339,14.9069423 13.4536359,13.3465385 13.03849,12.9897212 C12.7026369,12.7036058 12.2671487,12.5444231 12.1056569,12.4927404 C12.0658029,12.4782692 12.0379881,12.4728942 12.0379881,12.4728942 C12.0379881,12.4728942 11.7042108,12.0160192 11.340958,11.7059231 C10.9760447,11.3904519 10.3130566,11.3271923 10.297281,11.1874423 C10.2806752,11.0485192 9.73683394,11.6339808 9.73683394,11.6339808 L8.4175,12.3939231 L7.88030109,13.4494904 L6.89972628,13.9129808 L6.50741332,14.5885769 L4.60521442,16.0307308 C4.60521442,16.0307308 3.72053832,16.9114038 3.58104927,16.9188462 C3.44114507,16.9262885 3.63377281,17.3864712 3.63377281,17.3864712 L2.57265967,18.3709231 L2.03089416,18.5346538 L1.15991788,19.5559038 L0.357025547,20.8430096 L0.264863139,21.4937981" id="Fill-1" fill="#FFFFFF"></path>
                    <path d="M52.5516697,9.40955769 C52.5516697,12.604375 55.2762728,13.38375 57.677062,14.0705096 C59.7204106,14.6534904 61.6491788,15.2050481 61.6491788,17.1317788 C61.6491788,19.4909904 59.5115922,20.5668173 57.5238732,20.5668173 C54.4393385,20.5668173 53.1432527,18.19975 52.9028832,17.2864135 C52.9028832,17.2884808 52.8605383,17.0842308 52.8605383,17.0842308 C52.7833212,16.7365096 52.7314279,16.4842981 52.3930839,16.4842981 C52.2922035,16.4842981 52.2004562,16.5260577 52.1369389,16.603375 C52.0269252,16.7365096 52.000771,16.9713558 52.0626277,17.2810385 L52.6222445,20.1595577 C52.7314279,20.6515769 54.9088686,21.4536923 56.4926505,21.4536923 C61.2863412,21.4536923 62.9892701,18.8815481 62.9892701,16.6823462 C62.9892701,13.2431731 60.1940922,12.4360962 57.7268796,11.7212212 C55.6694161,11.1287308 53.8909307,10.6152115 53.8909307,8.78150962 C53.8909307,6.84072115 55.6818704,5.96790385 57.4562044,5.96790385 C59.4908349,5.96790385 61.021063,7.00403846 61.6541606,8.81127885 C61.7230748,9.01676923 61.7994617,9.25657692 61.953896,9.41824038 C62.0269617,9.49679808 62.1261816,9.54517308 62.2374407,9.53276923 C62.5882391,9.49018269 62.5351004,9.11889423 62.511437,8.87536538 C62.4890192,8.64465385 62.4620347,8.411875 62.4387865,8.18281731 C62.3819115,7.61348077 62.3129973,7.04373077 62.2490648,6.47522115 C62.2307984,6.34084615 62.2204197,6.20688462 62.207135,6.07581731 C62.1913595,5.93358654 62.1378057,5.77357692 61.9958257,5.71238462 C61.8339188,5.64457692 61.6960903,5.75497115 61.5607527,5.82691346 C61.5279562,5.84179808 61.4918385,5.86495192 61.459042,5.88479808 C61.3349133,5.95715385 61.1933485,5.85999038 61.0683896,5.80996154 C60.6100684,5.58834615 59.6552327,5.12816346 57.6131296,5.12816346 C55.0952692,5.12816346 52.5516697,6.45124038 52.5516697,9.40955769" id="Fill-3" fill="#FFFFFF"></path>
                    <path d="M88.6797491,9.34216346 C88.5265602,9.34216346 87.9407892,9.40955769 86.8788458,9.40955769 C85.7234945,9.40955769 85.2336223,9.34216346 84.965438,9.34216346 C84.7474863,9.34216346 84.6989142,9.51044231 84.6989142,9.62497115 C84.6989142,10.1785962 86.7472445,9.87635577 86.7472445,11.3999615 L86.7472445,16.9738365 C86.7472445,17.3922596 86.7152783,17.5927885 86.614813,17.5927885 C86.5122719,17.5927885 86.3109261,17.3922596 86.0942199,17.157 L79.3368887,9.77836538 C79.036323,9.45917308 79.2376688,9.34216346 78.7004699,9.34216346 C77.8103969,9.34216346 77.3715876,9.40955769 76.9365146,9.40955769 C76.616437,9.40955769 76.3146259,9.34216346 75.9945484,9.34216346 C75.9700547,9.34216346 75.9538641,9.34877885 75.9306159,9.35415385 C75.891177,9.34671154 75.8446807,9.34216346 75.7902965,9.34216346 C74.9525319,9.37358654 74.4298631,9.40955769 73.8760584,9.40955769 C73.4061131,9.40955769 72.9515283,9.37358654 72.4670529,9.34216346 C72.2449498,9.34216346 71.9564234,9.25823077 71.9564234,9.52739423 C71.9564234,10.1285673 74.0275867,9.60884615 74.0275867,11.5330962 L74.0275867,14.8478173 C74.0275867,17.6763077 73.5916834,20.3191538 70.2447765,20.3191538 C67.2378741,20.3191538 66.5653376,18.1964423 66.5653376,15.6342212 L66.5653376,12.002375 C66.5653376,9.25823077 67.9784945,10.1442788 67.9784945,9.57659615 C67.9784945,9.47777885 67.9436223,9.34216346 67.7929243,9.34216346 C67.4753376,9.34216346 66.279302,9.40955769 65.4228558,9.40955769 C64.5842609,9.40955769 63.3209717,9.34216346 63.1030201,9.34216346 C62.9685128,9.34216346 62.753052,9.38847115 62.753052,9.60884615 C62.753052,10.2451635 64.4979106,9.70973077 64.4979106,11.1506442 L64.4979106,16.6037885 C64.4979106,19.8507019 66.1784215,21.3073269 69.3206615,21.3073269 C73.957427,21.3073269 74.91849,18.4804904 74.91849,15.0793558 L74.91849,11.2990769 C74.91849,10.0752308 75.4087774,9.89620192 75.7570849,9.80027885 C76.041875,10.2621154 77.5911998,9.63448077 77.5911998,12.556 L77.5911998,18.9117308 C77.5911998,20.6205673 75.9754516,20.3191538 75.9754516,20.9889615 C75.9754516,21.2759038 76.3146259,21.18825 76.4985356,21.18825 C76.951875,21.18825 77.403969,21.1220962 77.9444891,21.1220962 C78.5319206,21.1220962 79.1010858,21.18825 79.9255657,21.18825 C80.1422719,21.18825 80.5636451,21.2076827 80.5636451,20.9695288 C80.5636451,20.1872596 78.4156797,21.3255192 78.4156797,18.1108558 L78.4156797,12.4203846 C78.4156797,12.2694712 78.4488914,12.1532885 78.5481113,12.1532885 C78.6340465,12.1532885 78.732021,12.2376346 78.8519982,12.3687019 L86.9323996,21.0733077 C87.0511314,21.2076827 87.1337454,21.3073269 87.3687181,21.3073269 C87.5721396,21.3073269 87.5721396,21.1737788 87.5721396,20.8062115 L87.5721396,11.4152596 C87.5721396,9.658875 88.9998266,10.062 88.9998266,9.56005769 C88.9998266,9.51044231 88.9998266,9.34216346 88.6797491,9.34216346" id="Fill-5" fill="#FFFFFF"></path>
                    <path d="M95.6558622,5.37169231 L94.3601916,5.41593269 L92.3882482,5.34647115 L92.0731524,5.32745192 C91.8576916,5.32745192 91.6928786,5.50730769 91.6928786,5.74918269 C91.6928786,6.11550962 92.0029927,6.132875 92.3056341,6.15065385 C92.8503057,6.18373077 93.5307299,6.22094231 93.5307299,7.86858654 L93.5307299,18.5573942 C93.5307299,20.1517019 92.8137728,20.3691827 92.2915192,20.5258846 C92.0312226,20.6056827 91.7837956,20.6801058 91.7837956,20.9426538 C91.7837956,21.2035481 92.0528102,21.2986442 92.2300776,21.2986442 L93.1608349,21.2626731 L94.6715511,21.2085096 L96.2225365,21.2626731 L97.0901916,21.2986442 C97.534813,21.2986442 97.8270757,21.2395192 97.8270757,20.9426538 C97.8270757,20.6226346 97.5061679,20.5684712 97.1669936,20.5081058 C96.494042,20.3948173 95.4752737,20.2224038 95.4752737,18.1323558 L95.4752737,6.86428846 C95.4752737,6.30694231 95.82026,6.28378846 96.5986588,6.28378846 C99.37474,6.28378846 101.173568,7.86858654 101.173568,10.3208269 C101.173568,12.2682308 99.9135995,13.3395096 97.6290511,13.3395096 L96.4496214,13.23325 L96.1714735,13.2043077 C95.9809215,13.2043077 95.8601141,13.3142885 95.8601141,13.4916635 C95.8601141,14.0386731 97.4567655,14.0903558 97.4733714,14.0903558 C99.5383075,14.0903558 101.082651,13.4718173 102.051601,12.2516923 C102.976962,11.0906923 103.00187,9.85981731 103.00187,9.72089423 C103.00187,6.971375 100.728116,5.32745192 96.9133394,5.32745192" id="Fill-7" fill="#FFFFFF"></path>
                    <path d="M107.257532,11.2990769 C107.257532,10.1442788 107.322295,10.1285673 109.358171,10.1285673 C112.602536,10.1285673 111.29026,12.0867212 112.077792,12.0867212 C112.464708,12.0867212 112.382094,11.5318558 112.366318,11.3160288 L112.296989,9.65928846 C112.296989,9.51085577 112.179918,9.34216346 111.960306,9.34216346 C110.481141,9.34216346 109.321223,9.40914423 108.127678,9.40914423 C105.56,9.40914423 104.346528,9.34216346 103.660707,9.34216346 C103.421998,9.34216346 103.292057,9.47736538 103.292057,9.62497115 C103.292057,10.2964327 105.188444,9.75975962 105.188444,11.2672404 L105.188444,19.0998558 C105.188444,21.1402885 103.913531,20.2356346 103.913531,21.0050865 C103.913531,21.1055577 104.013166,21.18825 104.229872,21.18825 C105.154818,21.18825 105.862226,21.1225096 106.379083,21.1225096 C107.221829,21.1225096 108.229804,21.18825 110.785027,21.18825 C112.161651,21.18825 113.152605,19.8159712 113.152605,18.5123269 C113.152605,18.1960288 113.037609,18.1431058 112.969941,18.1431058 C112.330616,18.1431058 112.565173,20.3373462 108.398768,20.3373462 C107.186957,20.3373462 107.257532,19.7341058 107.257532,18.6967308 L107.257532,16.5545865 C107.257532,15.5858462 107.186957,15.3811827 107.960374,15.3811827 L109.202491,15.3811827 C110.952331,15.3811827 110.481141,17.157 111.018755,17.157 C111.421031,17.157 111.321811,16.5545865 111.306866,16.3362788 L111.188549,13.3564615 C111.171528,12.905375 110.985128,12.9388654 110.869717,12.9388654 C110.532203,12.9388654 110.481141,14.4806635 109.036432,14.4806635 L107.979886,14.4806635 C107.257532,14.4806635 107.257532,14.3636538 107.257532,13.6438173" id="Fill-9" fill="#FFFFFF"></path>
                    <path d="M135.73281,20.0508173 C135.81667,20.4551827 135.800479,20.5874904 136.221437,20.6879615 C137.196615,20.9046154 138.054307,21.3073269 139.075151,21.3073269 C141.27667,21.3073269 142.823919,19.8159712 142.823919,17.6258654 C142.823919,15.5006731 141.715894,14.7804231 139.918727,13.9919519 C137.6649,13.0066731 136.74203,12.7896058 136.74203,11.6678846 C136.74203,10.54575 137.499256,9.9115 138.60562,9.9115 C141.498773,9.9115 141.746615,13.0248654 142.136022,13.0248654 C142.507993,13.0248654 142.554489,12.8230962 142.518786,12.453875 L142.334877,10.2108462 C142.305401,9.82674038 142.355219,9.57659615 142.102395,9.57659615 C141.884443,9.57659615 141.46307,9.84451923 141.242628,9.84451923 C140.743622,9.84451923 140.034968,9.19083654 138.655438,9.19083654 C136.690967,9.19083654 135.34963,10.5978462 135.34963,12.5192019 C135.34963,14.2764135 136.338923,14.9309231 137.783631,15.5676538 C140.487892,16.7547019 141.545684,16.9738365 141.545684,18.3928365 C141.545684,19.7341058 140.540201,20.5374615 139.228339,20.5374615 C137.362258,20.5374615 136.323563,19.0138558 135.782213,17.4079712 C135.71745,17.1913173 135.682993,17.0395769 135.413978,17.0395769 C134.99219,17.0395769 135.159494,17.5249808 135.210557,17.7614808" id="Fill-11" fill="#FFFFFF"></path>
                    <path d="M90.3067062,37.2570192 C90.3909808,37.6617981 90.3797719,37.7936923 90.7978239,37.8945769 C91.7709261,38.1112308 92.6286177,38.5135288 93.6544434,38.5135288 C95.8547172,38.5135288 97.4019662,37.0254808 97.4019662,34.8337212 C97.4019662,32.7052212 96.292281,31.9882788 94.4913777,31.2014615 C92.2417016,30.2132885 91.3163412,29.9991154 91.3163412,28.8749135 C91.3163412,27.7548462 92.0731524,27.1185288 93.1828376,27.1185288 C96.0768203,27.1185288 96.3271533,30.2306538 96.7115785,30.2306538 C97.0802281,30.2306538 97.1321214,30.0288846 97.0976642,29.65925 L96.9129243,27.4199423 C96.8797126,27.0350096 96.932021,26.7827981 96.6779516,26.7827981 C96.4612454,26.7827981 96.0398723,27.0519615 95.8231661,27.0519615 C95.3175182,27.0519615 94.6101095,26.3986923 93.2347308,26.3986923 C91.2665237,26.3986923 89.9226962,27.8040481 89.9226962,29.7262308 C89.9226962,31.4838558 90.9132345,32.1358846 92.3612637,32.7750962 C95.0634489,33.9633846 96.1229015,34.1792115 96.1229015,35.6019327 C96.1229015,36.9394808 95.1170027,37.7444904 93.8063869,37.7444904 C91.9407208,37.7444904 90.9011953,36.2204712 90.3619206,34.615 C90.2954973,34.3975192 90.2622856,34.2474327 89.9916104,34.2474327 C89.5702372,34.2474327 89.7400319,34.7307692 89.7898495,34.9647885" id="Fill-13" fill="#FFFFFF"></path>
                    <path d="M123.880807,36.206 C123.880807,38.1951635 121.98193,37.3951154 121.98193,38.0434231 C121.98193,38.4142981 122.269211,38.3973462 122.572682,38.3973462 C123.242728,38.3973462 123.798193,38.3299519 124.923654,38.3299519 C126.051191,38.3299519 126.60458,38.3973462 127.274626,38.3973462 C127.763253,38.3973462 128.097445,38.4469615 128.097445,38.0434231 C128.097445,37.5753846 125.949065,38.0612019 125.949065,36.0034038 L125.949065,28.4382981 C125.949065,27.6365962 126.114708,27.5539038 126.803435,27.5539038 L128.233613,27.5539038 C130.166533,27.48775 129.629334,29.3425385 130.300625,29.3425385 C130.739849,29.3425385 130.553449,28.6913365 130.520237,28.4887404 L130.335082,26.9485962 C130.318891,26.7832115 130.318891,26.5491923 130.063161,26.5491923 C128.502628,26.5491923 127.377997,26.6149327 124.923654,26.6149327 C122.472217,26.6149327 121.346756,26.5491923 119.782071,26.5491923 C119.531323,26.5491923 119.531323,26.7832115 119.513057,26.9485962 L119.244457,29.1577212 C119.211245,29.3780962 119.107459,29.7448365 119.463654,29.7448365 C120.223371,29.7448365 119.716893,27.5539038 121.61328,27.5539038 L123.026022,27.5539038 C123.713919,27.5539038 123.880807,27.6365962 123.880807,28.4382981" id="Fill-15" fill="#FFFFFF"></path>
                    <path d="M119.16641,16.1324423 L116.880616,16.1324423 C116.575484,16.1324423 116.340926,16.1498077 116.340926,15.9794615 C116.340926,15.74875 116.443052,15.5614519 116.525666,15.3642308 L117.825073,12.3997115 C117.90312,12.2161346 117.97162,12.1983558 118.006492,12.1983558 C118.089106,12.1983558 118.036797,12.1983558 118.138923,12.3335577 L119.517623,15.3642308 C119.600237,15.5614519 119.702363,15.74875 119.702363,15.9794615 C119.702363,16.1498077 119.46656,16.1324423 119.16641,16.1324423 M134.031127,19.2503558 L130.821218,14.9474615 C130.571715,14.614625 130.420602,14.4132692 130.420602,14.259875 C130.420602,14.1114423 130.690447,13.8579904 130.786761,13.7777788 L133.746752,11.0485192 C135.37537,9.57659615 135.915474,10.0793654 135.915474,9.62497115 C135.915474,9.32438462 135.611172,9.34216346 135.47708,9.34216346 C134.756387,9.34216346 134.315917,9.40955769 133.896204,9.40955769 C133.392217,9.40955769 132.234375,9.34216346 132.065826,9.34216346 C131.846629,9.34216346 131.67891,9.35870192 131.67891,9.658875 C131.67891,10.0471154 132.705566,9.82674038 132.705566,10.346875 C132.705566,11.0981346 131.075287,12.453875 130.603266,12.9239808 L128.386387,15.0793558 C128.168435,15.3005577 128.065894,15.3807692 127.965014,15.3646442 C127.868285,15.3807692 127.881984,15.1479904 127.881984,14.9838462 L127.881984,11.1502308 C127.881984,9.30784615 129.09089,10.2108462 129.09089,9.54310577 C129.09089,9.34216346 128.892035,9.34216346 128.740922,9.34216346 C128.404238,9.34216346 127.342295,9.40955769 126.40531,9.40955769 C125.260338,9.40955769 124.706533,9.34216346 124.387701,9.34216346 C124.1876,9.34216346 124.051017,9.40955769 124.051017,9.59272115 C124.051017,10.3286827 125.813312,9.47695192 125.813312,11.5012596 L125.813312,18.7798365 C125.813312,20.4584904 125.223805,20.5420096 124.822774,20.6552981 C124.530511,20.5713654 123.955119,20.6660481 123.568618,19.8143173 L119.029827,9.57163462 C118.812705,9.06969231 118.779909,9.03454808 118.627965,9.03454808 C118.410844,9.03454808 118.324078,9.35539423 118.207838,9.62207692 L113.651195,19.7448558 C113.231898,20.6825865 112.375452,20.5845962 112.375452,20.9682885 C112.375452,21.1878365 112.644466,21.1518654 112.88193,21.1518654 C113.369311,21.1518654 113.857108,21.0852981 114.360265,21.0852981 C114.899539,21.0852981 115.39979,21.1518654 115.941556,21.1518654 C116.290693,21.1518654 116.812947,21.2697019 116.812947,20.9174327 C116.812947,20.4667596 114.997929,20.7334423 114.997929,19.527375 C114.997929,19.1283846 115.231656,18.5404423 115.347482,18.2055385 C115.738134,17.10325 116.090593,17.0383365 116.377459,17.0383365 L119.689909,17.0383365 C120.123321,17.0383365 120.207596,17.2020673 120.759325,18.5086058 C120.944065,18.9605192 121.064042,19.2623462 121.064042,19.6290865 C121.064042,20.6499231 119.869667,20.4667596 119.869667,20.9513365 C119.869667,21.1878365 120.088034,21.1518654 120.391505,21.1518654 C120.876811,21.1518654 121.502021,21.0852981 122.239735,21.0852981 C123.349836,21.0852981 123.80193,21.1518654 124.407213,21.1518654 L124.574101,21.1518654 C124.665849,21.1816346 124.805338,21.1878365 124.991323,21.1878365 C125.511916,21.1878365 126.386214,21.1225096 127.193257,21.1225096 C128.147678,21.1225096 128.604339,21.1878365 129.056432,21.1878365 C129.463691,21.1878365 129.527208,21.139875 129.527208,20.9889615 C129.527208,20.387375 127.881984,20.9207404 127.881984,19.3826635 L127.881984,17.1913173 C127.881984,16.8047308 127.847527,16.6554712 128.100766,16.3697692 C128.469001,15.9492788 128.755452,15.6672981 128.892035,15.6672981 C128.991255,15.6672981 129.09089,15.8521154 129.308841,16.1361635 L132.653257,20.7053269 C132.988695,21.156 133.15849,21.1878365 133.476492,21.1878365 C133.947267,21.1878365 134.286442,21.1225096 134.601953,21.1225096 C135.058613,21.1225096 135.494101,21.1878365 135.863166,21.1878365 C136.066172,21.1878365 136.082778,21.0890192 136.082778,20.9695288 C136.082778,20.554 135.342158,21.0224519 134.031127,19.2503558" id="Fill-17" fill="#FFFFFF"></path>
                    <path d="M97.901802,32.8209904 C97.901802,36.2184038 100.17016,38.4771442 103.548618,38.4771442 C108.907322,38.4771442 109.933563,34.3776731 109.933563,32.035 C109.933563,28.4870865 107.429818,26.32675 104.153485,26.3618942 C100.136948,26.3929038 97.901802,29.1560673 97.901802,32.8209904 M99.9700593,31.8679615 C99.9700593,29.4397019 100.811145,27.1305192 103.650328,27.0813173 C105.816145,27.0490673 107.866136,28.9877885 107.866136,32.6870288 C107.866136,35.4634231 106.924585,37.7081058 104.034754,37.7577212 C101.030342,37.8065096 99.9700593,34.3102788 99.9700593,31.8679615" id="Fill-19" fill="#FFFFFF"></path>
                    <path d="M112.913896,28.2340481 C112.913896,27.2318173 113.433244,27.2318173 114.055963,27.2318173 C115.751004,27.2318173 116.694215,28.4697212 116.694215,30.1115769 C116.694215,31.094375 116.592089,32.0345865 114.038526,32.0345865 C113.532879,32.0345865 112.913896,32.0345865 112.913896,31.6120288 L112.913896,28.2340481 Z M110.847299,35.9839712 C110.847299,38.0913846 109.48479,37.5377596 109.48479,38.0748462 C109.48479,38.4093365 109.836419,38.3597212 110.022819,38.3597212 C110.86266,38.3597212 111.703745,38.2948077 112.61167,38.2948077 C113.317003,38.2948077 113.767436,38.3597212 114.055963,38.3597212 C114.442464,38.3597212 114.578216,38.2604904 114.578216,38.1075096 C114.578216,37.5079904 112.913896,38.1918558 112.913896,36.4040481 L112.913896,33.5073365 C112.913896,32.9214615 112.814261,32.8052788 113.702673,32.8052788 C114.543344,32.8052788 114.845985,32.9549519 115.231656,33.6909135 L116.641907,36.3329327 C117.163745,37.3062212 117.700944,38.3597212 119.030242,38.3597212 C119.700287,38.3597212 120.808727,37.9917404 120.808727,37.4745 C120.808727,37.3376442 120.710753,37.2367596 120.557564,37.2367596 C120.391505,37.2367596 120.222956,37.3376442 120.050671,37.3376442 C119.92073,37.3376442 119.600237,37.3376442 119.449539,37.0722019 C118.238558,34.9618942 116.812947,32.5365288 116.812947,32.4344038 C116.812947,32.2686058 117.297838,32.1205865 117.785634,31.7335865 C118.274261,31.3317019 118.760397,30.7135769 118.760397,29.6406442 C118.760397,28.8703654 118.424544,26.5123942 114.743859,26.5123942 C113.618399,26.5123942 112.475917,26.5777212 111.34755,26.5777212 C110.292249,26.5777212 110.159402,26.5123942 109.385985,26.5123942 C109.181734,26.5123942 109.014845,26.5942596 109.014845,26.7629519 C109.014845,27.3657788 110.847299,26.7468269 110.847299,28.6198077 L110.847299,35.9839712 Z" id="Fill-21" fill="#FFFFFF"></path>
                    <path d="M71.8339553,30.0466635 L72.3956478,30.040875 C73.1051323,30.040875 75.4241378,29.8155385 75.4241378,26.9560385 C75.4241378,23.7525385 72.8116241,23.4085385 71.5495803,23.4085385 L71.4370757,23.4085385 C71.0015876,23.4085385 70.6877372,23.4056442 70.5204334,23.5706154 C70.4095894,23.6764615 70.3610173,23.8633462 70.3610173,24.1486346 L70.3610173,29.8147115 L70.394229,29.8833462 C70.5868568,30.0718846 71.0987318,30.0594808 71.8339553,30.0466635 M89.4070849,35.7189423 C89.4070849,37.0250673 88.4169617,38.3969327 87.0399224,38.3969327 C84.4859443,38.3969327 83.4758942,38.3299519 82.6360538,38.3299519 C82.1781478,38.3299519 81.561656,38.3775 80.7948814,38.3919712 C80.5661359,38.4386923 80.2203193,38.4705288 79.6781387,38.4705288 C78.0196305,38.4705288 77.1415967,37.3620385 76.2407299,36.0220096 L73.7581569,32.1123173 L73.5360538,31.7633558 C73.0449361,30.9695096 73.0449361,30.9695096 71.2174635,30.9724038 L70.8508896,30.9724038 C70.6292016,30.9724038 70.4809945,31.0096154 70.408344,31.0885865 C70.3327874,31.1700385 70.3431661,31.29325 70.3518841,31.4069519 L70.357281,31.5107308 L70.357281,36.2184038 C70.357281,37.3252404 71.1788549,37.5092308 71.8414279,37.6551827 C72.2955976,37.7560673 72.6837591,37.8416538 72.6837591,38.2030192 L72.6140146,38.3994135 L72.2931068,38.4709423 L72.2167199,38.4705288 L71.9871442,38.4531635 L69.6411542,38.3816346 L67.0846852,38.4705288 C66.9082482,38.4705288 66.7745712,38.3274712 66.7745712,38.1376923 C66.7745712,37.8751442 67.0269799,37.7759135 67.3221487,37.6539423 C67.8070392,37.4604423 68.4110766,37.2144327 68.4110766,36.1969038 L68.4110766,24.8407692 C68.4110766,23.5660673 67.7165374,23.4378942 67.1602418,23.3341154 C66.8127646,23.2675481 66.4835538,23.2067692 66.4835538,22.8524327 C66.4835538,22.6531442 66.7185265,22.494375 67.0182619,22.494375 L67.3603422,22.5257981 L68.4530064,22.5878173 L70.4249498,22.5406827 L72.2918613,22.4923077 C74.6635903,22.3984519 75.9156706,23.0988558 76.5458622,23.7020962 C77.2374954,24.3694231 77.5936907,25.289375 77.5936907,26.445 C77.5936907,28.0852019 76.4732117,29.6290673 74.8051551,30.3336058 C74.9035447,30.4828654 78.4962181,35.9025192 78.4962181,35.9025192 C79.4950593,37.4228173 80.2792701,37.6589038 80.7334398,37.7597885 C81.0755201,37.6465 81.4416788,37.4009038 81.4416788,36.3056442 L81.4416788,28.4709615 C81.4416788,26.9684423 79.5448768,27.5018077 79.5448768,26.8324135 C79.5448768,26.6827404 79.6806296,26.5491923 79.9156022,26.5491923 C80.6043294,26.5491923 81.8132345,26.6145192 84.3850639,26.6145192 C85.5757026,26.6145192 86.7360356,26.5491923 88.2164462,26.5491923 C88.4335675,26.5491923 88.5506387,26.7141635 88.5506387,26.8683846 L88.6220438,28.5226442 C88.6361588,28.7405385 88.7204334,29.2941635 88.3339325,29.2941635 C87.5439097,29.2941635 88.8541104,27.3347692 85.6126505,27.3347692 C83.5784352,27.3347692 83.5120119,27.3513077 83.5120119,28.5073462 L83.5120119,30.8508462 C83.5120119,31.5715096 83.5120119,31.6868654 84.2343659,31.6868654 L85.2900821,31.6868654 C86.7360356,31.6868654 86.788344,30.1458942 87.1250274,30.1458942 C87.2400228,30.1458942 87.4247628,30.1144712 87.4417838,30.5647308 L87.5588549,33.5462019 C87.5771214,33.7624423 87.6775867,34.3660962 87.2740648,34.3660962 C86.7360356,34.3660962 87.2043203,32.5894519 85.4594617,32.5894519 L84.2160995,32.5894519 C83.4443431,32.5894519 83.5120119,32.7924615 83.5120119,33.7624423 L83.5120119,35.9025192 C83.5120119,36.9394808 83.4443431,37.5418942 84.652833,37.5418942 C88.8200684,37.5418942 88.5850958,35.3530288 89.2235903,35.3530288 C89.2887682,35.3530288 89.4070849,35.4018173 89.4070849,35.7189423" id="Fill-23" fill="#FFFFFF"></path>
                    <polyline id="Fill-25" fill="#FFFFFF" points="143.902468 9.90860577 144.388604 9.90860577 144.388604 9.67003846 143.075082 9.67003846 143.075082 9.90860577 143.564124 9.90860577 143.564124 11.0183365 143.902468 11.0183365"></polyline>
                    <polyline id="Fill-27" fill="#FFFFFF" points="146.130557 9.67003846 145.643175 9.67003846 145.353403 10.7313942 145.349252 10.7313942 145.05948 9.67003846 144.56172 9.67003846 144.56172 11.0183365 144.880967 11.0183365 144.880967 9.89248077 144.882628 9.89248077 145.181118 11.0183365 145.508668 11.0183365 145.811724 9.89248077 145.815461 9.89248077 145.815461 11.0183365 146.130557 11.0183365"></polyline>
                    <path d="M41.6457847,21.5789712 L40.3725319,20.9889615 L38.9078969,20.0694231 C38.9078969,20.0694231 38.3325046,19.5765769 37.5076095,19.7539519 C36.687281,19.9288462 34.9665009,19.2536635 34.810406,19.1213558 C34.6514051,18.9886346 33.9784535,18.828625 33.4292153,18.9460481 C32.8808075,19.0647115 31.6183485,19.1151538 31.6183485,19.1151538 L30.5576505,19.3074135 C30.5576505,19.3074135 29.7643066,19.3400769 29.3429334,19.3615769 C28.9232208,19.3777019 28.0074088,19.5575577 28.0074088,19.5575577 C28.0074088,19.5575577 27.550333,20.0950577 27.069594,20.3952308 C26.5884398,20.6982981 24.3242336,21.0319615 24.3242336,21.0319615 C24.3242336,21.0319615 24.3217427,21.03775 24.308458,21.0460192 C24.2976642,21.0530481 24.2926825,21.05925 24.2731706,21.0733077 C24.2681889,21.0766154 24.2648677,21.0828173 24.2561496,21.0869519 C24.2221077,21.1138269 24.1756113,21.150625 24.1224726,21.1944519 C24.1224726,21.1977596 24.1203969,21.1977596 24.1203969,21.1977596 C24.0340465,21.2697019 23.9356569,21.3544615 23.8322856,21.4441827 C23.8231524,21.4520385 23.813604,21.4627885 23.8044708,21.4727115 C23.77375,21.4995865 23.7446898,21.5285288 23.711063,21.5570577 C23.5645164,21.6959808 23.4362363,21.8295288 23.3959672,21.9159423 C23.2797263,22.1561635 22.2987363,21.7947981 22.2987363,21.7947981 L21.6166515,22.3864615 L20.5588595,23.1703846 L19.3030429,24.1771635 L18.2643476,24.9697692 C18.2643476,24.9697692 18.3253741,24.5922788 17.9596305,24.7018462 C17.6009443,24.8118269 17.4477555,24.725 17.4477555,24.725 C17.8280292,24.3317981 18.3286953,23.7967788 18.3286953,23.7967788 L18.5478923,23.7393077 L19.7908394,22.5965 L20.2358759,21.8390385 L21.1413093,21.5169519 L21.4157208,21.4379808 L21.9454471,20.7156635 C21.9454471,20.7156635 22.954667,20.5296058 23.014448,20.2451442 C23.037281,20.1471538 23.0430931,20.0595 23.0526414,19.9801154 C23.0663412,19.9069327 23.0783805,19.8478077 23.1174042,19.8019135 C23.1198951,19.796125 23.1236314,19.7924038 23.1302737,19.7870288 C23.1443887,19.7717308 23.1609945,19.7593269 23.1867336,19.7494038 C23.1929608,19.7436154 23.2033394,19.7403077 23.210812,19.7353462 C23.2427783,19.7254231 23.2797263,19.7171538 23.3307892,19.7163269 C23.6562637,19.7030962 24.0635219,19.16725 24.0635219,19.16725 C24.0635219,19.16725 25.32349,17.8470673 25.2707664,17.3815096 C25.0918385,17.0610769 24.564188,16.9395192 24.0045712,16.9655673 C23.4437089,16.9899615 22.8840922,16.6422404 22.8840922,16.6422404 L21.5552099,17.3533942 C21.5552099,17.3533942 19.6862226,17.3893654 19.8041241,17.1958654 C19.9245164,17.0060865 19.4317381,17.2136442 19.0738823,17.3699327 C18.7156113,17.5249808 18.4420301,17.5849327 17.9463458,17.7929038 C17.4556432,18.0000481 16.4302327,18.4685 16.4302327,18.4685 L14.7571943,19.4339327 L13.7363504,19.9478654 L13.0380748,20.3972981 C13.0380748,20.3972981 12.2949635,20.8967596 12.1538139,20.9161923 C12.0782573,20.9269423 12.0101734,20.9422404 11.9483166,20.957125 C11.9292199,20.9637404 11.9121989,20.9682885 11.8935173,20.9740769 C11.8532482,20.9856538 11.812979,21.0009519 11.776031,21.0117019 C11.7573495,21.0195577 11.7436496,21.0274135 11.7270438,21.0356827 C11.6909261,21.0530481 11.6597901,21.0695865 11.6274088,21.0869519 C11.6203513,21.0915 11.6066515,21.0993558 11.599594,21.1039038 C11.5643066,21.1295385 11.5306797,21.1531058 11.5036953,21.1816346 C11.4949772,21.1878365 11.4883349,21.1944519 11.4804471,21.2035481 C11.4617655,21.2233942 11.4447445,21.242 11.4293841,21.2626731 C11.4202509,21.2721827 11.4115328,21.2792115 11.4044754,21.2932692 C11.3916058,21.3122885 11.3828878,21.3317212 11.3700182,21.3503269 C11.3642062,21.3569423 11.357979,21.3672788 11.3546578,21.376375 C11.3247673,21.4346731 11.3035949,21.4900769 11.2878193,21.5396923 C11.2475502,21.6604231 11.2284535,21.7493173 11.144594,21.7509712 L10.0382299,22.6117981 L9.74223084,22.9665481 C9.74223084,22.9665481 9.2913823,23.7806538 9.05723996,23.7947115 C8.87125456,23.8005 7.93468522,23.9592692 7.93468522,23.9592692 L7.85912865,23.9857308 C7.85912865,23.9857308 7.85290146,23.9357019 7.90770073,23.9125481 C8.26721715,23.3928269 8.7533531,22.773875 8.7533531,22.773875 C8.7533531,22.773875 8.82683394,22.773875 8.92356296,22.3963846 C8.99496807,22.1247404 9.36569343,22.0035962 9.57617245,21.9523269 C9.74389142,21.6509135 10.2582573,20.7739615 10.447979,20.7446058 C11.3226916,20.6156058 11.4094571,19.7175673 11.4293841,19.8597981 C11.4410082,20.0016154 12.4809489,18.828625 12.4809489,18.828625 L12.8740922,18.576 C12.8740922,18.576 13.1530703,18.1431058 13.2676505,17.9016442 C13.3834763,17.6672115 13.6363002,17.4187212 13.2140967,17.4360865 C12.7960447,17.4555192 12.2538641,17.2434135 12.2368431,17.1057308 C12.2235584,16.9655673 10.8884489,16.7890192 10.7178239,16.9378654 C10.5455383,17.0838173 9.02112226,17.2917885 9.02112226,17.2917885 L7.59343522,17.9165288 L6.79677007,17.9504327 C6.79677007,17.9504327 5.7543385,18.1509615 5.8635219,17.9913654 C5.94281478,17.8714615 5.27775091,18.6280962 5.05896898,18.7781827 C4.84309307,18.9282692 4.17014142,19.4227692 3.86500912,19.6232981 C3.55904653,19.8246538 2.42279197,20.5759135 2.42279197,20.5759135 C2.42279197,20.5759135 2.26545164,20.8632692 1.73863139,21.1688173 C1.29110401,21.4276442 0.567504562,21.7898365 0.356195255,21.8944423 L0.958156934,24.5331538 L2.49004562,22.7238462 L2.80431113,25.2058558 L3.84425182,24.1709615 L4.25732208,26.9655481 L5.19472172,25.6193173 L5.71572993,28.7227596 L6.28531022,27.2731635 L6.75442518,30.0710577 L7.60298358,29.0221058 L8.51962591,32.1396058 L9.35033303,30.2753077 L10.4961359,33.8988846 L11.0242016,32.4439135 L11.7399133,34.6220288 L12.5726962,32.1396058 L13.4034033,36.2795962 L14.1307391,34.9337788 L14.6484261,37.3149038 L15.6875365,36.0724519 L16.4157026,38.8662115 L17.3506113,38.0401154 L17.9745757,40.5233654 L18.7014964,38.7636731 L19.0141013,40.42 L19.5604334,39.8618269 L20.1300137,41.2605673 L20.7012546,40.5857981 L21.3530338,41.9725481 L22.2613732,39.7067788 L23.0933257,40.7412596 C23.0933257,40.7412596 23.2992381,37.9491538 23.2992381,38.2580096 C23.2992381,38.5697596 24.0278193,40.4315769 24.0278193,40.4315769 L24.547167,36.9126058 L25.2749179,38.1562981 L25.7934352,35.8793654 L26.8333759,37.5361058 L27.1480566,34.4281154 L28.2888777,35.5672019 L28.8065648,33.3928077 L29.5368066,34.5331346 L30.0553239,31.7894038 L30.5763321,33.0847788 L31.4066241,30.3939712 L32.6541378,31.6347692 L32.9667427,29.3578365 L34.1092245,30.2901923 L34.2109352,28.0128462 L34.9395164,28.9439615 L35.2529516,26.149375 L36.1882755,28.0128462 L36.7051323,26.0451827 L37.5387454,26.2531538 L38.0564325,24.3896827 L38.785844,25.6321346 L39.408563,23.1488846 L40.3418111,23.8745096 L40.5493841,21.5955096 L41.7699133,22.8127404 L42.1493568,21.8100962" id="Fill-29" fill="#2C2F73"></path>
                    <path d="M30.5642929,10.8918173 C30.5642929,5.77523077 26.3991332,1.62573077 21.2621168,1.62573077 C16.1230246,1.62573077 11.9582801,5.77523077 11.9582801,10.8918173 C11.9582801,11.1688365 11.9769617,11.4413077 12.0002099,11.7158462 C12.023458,11.9763269 12.0637272,12.2363942 12.1056569,12.4923269 C12.2675639,12.5440096 12.7026369,12.7036058 13.0380748,12.9893077 C13.4536359,13.3469519 14.2868339,14.9073558 14.5479608,15.1281442 C14.8078422,15.3501731 15.4936633,15.6003173 15.4936633,15.6003173 L15.5476323,16.0687692 L17.5083668,14.3409135 L17.7682482,14.1424519 L18.5188321,13.7372596 C18.5188321,13.7372596 19.7144526,12.6994712 19.8261268,12.4604904 C19.940292,12.2219231 21.1707847,11.4636346 21.1707847,11.4636346 C21.1707847,11.4636346 20.9984991,11.1903365 21.2301505,11.1771058 C21.4622172,11.1688365 21.8217336,11.0117212 22.22401,11.2292019 C22.6225502,11.4479231 23.8472308,11.862625 23.8472308,11.862625 L24.2947582,12.5460769 C24.2947582,12.5460769 25.7220301,13.5139904 25.7382208,13.6549808 C25.7535812,13.7967981 26.4348358,14.4223654 26.4348358,14.4223654 L27.263052,15.0896923 L27.8384443,15.2054615 L29.8265785,13.7128654 C29.8265785,13.7128654 29.6542929,13.4375 29.9851642,13.0500865 C30.0702692,12.9492019 30.2143248,12.8185481 30.3886861,12.6808654 C30.4418248,12.3910288 30.4899818,12.099125 30.5186268,11.8001923 C30.5485173,11.4991923 30.5642929,11.1973654 30.5642929,10.8918173" id="Fill-31" fill="#FCB732"></path>
                    <path d="M42.6026962,26.5777212 C42.445771,26.1096827 42.4968339,21.0141827 42.4968339,21.0141827 L42.3444754,21.2866538 L42.2651825,21.4937981 L41.7699133,22.8131538 L40.5493841,21.5955096 L40.3422263,23.8749231 L39.4089781,23.1492981 L38.7854288,25.6321346 L38.0560173,24.3892692 L37.5387454,26.2527404 L36.7047172,26.0451827 L36.1882755,28.0132596 L35.2525365,26.149375 L34.9395164,28.9439615 L34.2113504,28.0132596 L34.1092245,30.2901923 L32.9667427,29.3578365 L32.6541378,31.6343558 L31.4066241,30.3935577 L30.5763321,33.0847788 L30.0557391,31.7894038 L29.5368066,34.5331346 L28.8065648,33.3923942 L28.2884626,35.5667885 L27.1484717,34.4281154 L26.8329608,37.5361058 L25.7934352,35.8793654 L25.275333,38.1562981 L24.547167,36.9126058 L24.0274042,40.4315769 C24.0274042,40.4315769 23.298823,38.5701731 23.298823,38.2580096 C23.298823,37.9491538 23.0937409,40.7412596 23.0937409,40.7412596 L22.2613732,39.7067788 L21.3534489,41.9725481 L20.7012546,40.5862115 L20.1300137,41.2605673 L19.5604334,39.8622404 L19.0141013,40.4204135 L18.7014964,38.7632596 L17.9745757,40.5233654 L17.3506113,38.0401154 L16.4161177,38.8657981 L15.6871214,36.0724519 L14.6484261,37.3149038 L14.1307391,34.9333654 L13.4034033,36.2800096 L12.572281,32.1396058 L11.7399133,34.6220288 L11.0242016,32.4439135 L10.4957208,33.8988846 L9.35033303,30.2753077 L8.51962591,32.1396058 L7.60298358,29.0221058 L6.75442518,30.0710577 L6.28572536,27.2731635 L5.71572993,28.7227596 L5.19472172,25.6193173 L4.25773723,26.9651346 L3.84425182,24.1709615 L2.80431113,25.2058558 L2.49046077,22.7238462 L0.957741788,24.5331538 L0.353289234,21.8692212 L0.258635949,21.4541058 L0.298074818,24.3532981 C0.298074818,24.3532981 0.428015511,28.2567885 0.516856752,28.7504615 C0.611925182,29.2408269 0.205912409,31.5686154 0.205912409,31.5686154 L0.466624088,33.87325 L0.516856752,37.9102885 L0.310529197,39.2767788 C0.310529197,39.2767788 0.428015511,41.6864327 0.466624088,42.4873077 C0.466624088,42.4873077 3.53123175,42.5658654 4.88211679,42.5125288 C6.23424726,42.4616731 8.31080748,42.5915 8.88163321,42.4364519 C9.45370438,42.2826442 13.2738777,42.3715385 13.2738777,42.3715385 L14.9103832,42.4616731 L20.1586588,42.4873077 L23.5350411,42.5278269 L28.9888139,42.5530481 C28.9888139,42.5530481 32.7736998,42.3053846 33.4097035,42.27975 C34.0461223,42.2545288 35.4854334,42.4132981 35.4854334,42.4132981 L39.8901323,42.6167212 L41.9803923,42.4873077 L42.2249133,42.4616731 L42.3295301,39.2552788 C42.3295301,39.2552788 42.445771,36.6388942 42.5491423,36.0989135 C42.6537591,35.5572788 42.3166606,33.0177981 42.3166606,32.5799423 C42.3166606,32.1416731 42.7563002,27.0424519 42.6026962,26.5777212" id="Fill-33" fill="#008348"></path>
                    <path d="M2.03089416,18.5346538 L2.57265967,18.3709231 L3.63377281,17.3864712 C3.63377281,17.3864712 3.44072993,16.9262885 3.58104927,16.9188462 C3.72053832,16.9114038 4.60521442,16.0307308 4.60521442,16.0307308 L6.50741332,14.5885769 L6.89972628,13.9129808 L7.87988595,13.4494904 L8.4175,12.3939231 L9.73683394,11.6339808 C9.73683394,11.6339808 10.2810903,11.0485192 10.297281,11.1874423 C10.3134717,11.3271923 10.9764599,11.3904519 11.340958,11.7059231 C11.7042108,12.0160192 12.0379881,12.4728942 12.0379881,12.4728942 C12.0379881,12.4728942 12.0658029,12.4782692 12.1056569,12.4927404 C12.0637272,12.2363942 12.0238732,11.9767404 11.9997947,11.7158462 C11.9769617,11.4413077 11.9582801,11.1684231 11.9582801,10.8914038 C11.9582801,5.77564423 16.1226095,1.62573077 21.2621168,1.62573077 C26.3987181,1.62573077 30.5642929,5.77564423 30.5642929,10.8914038 C30.5642929,11.1973654 30.5485173,11.4987788 30.5182117,11.8006058 C30.4899818,12.0995385 30.4414097,12.3906154 30.3886861,12.6804519 C30.8964097,12.2694712 31.6266515,11.7935769 31.639521,11.8965288 C31.6548814,12.0358654 32.0638002,11.5049808 32.0638002,11.5049808 L32.8201962,11.98625 L34.7850821,13.9638365 L36.266323,15.0251923 L37.6649498,16.1853654 L38.6679425,17.173125 L39.6850502,18.2501923 L41.0463139,19.4587404 L42.4735858,20.3898558 C42.4860401,19.9098269 42.5005703,19.4847885 42.5005703,19.4847885 C42.5005703,19.4847885 42.1879653,16.0956442 42.2934124,15.2670673 C42.3984443,14.4413846 42.2934124,11.3354615 42.2934124,11.3354615 L42.6043568,9.47447115 L42.2934124,5.84882692 C42.2934124,5.84882692 42.0866697,3.47225 42.2934124,3.15967308 C42.5005703,2.84916346 42.2905064,0.674769231 42.2905064,0.674769231 L38.5508714,0.674769231 L36.0599954,0.262961538 C36.0599954,0.262961538 32.7326004,0.986932692 31.6918294,0.674769231 C30.658531,0.366740385 27.3307208,0.366740385 27.0181159,0.366740385 C26.7059261,0.366740385 21.7183622,0.674769231 21.7183622,0.674769231 C21.7183622,0.674769231 18.49849,0.883980769 17.4568887,0.883980769 C16.419854,0.883980769 13.6122217,0.471346154 11.6390328,0.471346154 C9.66501369,0.471346154 7.17123175,0.674769231 7.17123175,0.674769231 L0.310114051,0.674769231 C0.310114051,0.674769231 0.415561131,2.53989423 0.313435219,2.53989423 C0.210063869,2.53989423 0.466624088,4.91853846 0.466624088,5.22946154 C0.466624088,5.53955769 0.623134124,8.02363462 0.313435219,8.02363462 C0.000830291969,8.02363462 0.415561131,11.4392404 0.313435219,11.4392404 C0.210063869,11.4392404 0.107107664,15.4758654 0.313435219,16.0956442 C0.521008212,16.7179038 0.137828467,19.0539615 0.313435219,19.9255385 C0.377367701,20.2451442 0.379443431,20.5684712 0.356610401,20.8430096 L1.16033303,19.5559038" id="Fill-35" fill="#099AD7"></path>
                </g>
            </g>
        </g>
    </g>
</svg>